<svg xmlns="http://www.w3.org/2000/svg" viewBox="0 0 948.55 948.55">
  <title>Plan de travail 1</title>
  <g id="Calque_11" data-name="Calque 11">
    <g id="Poison">
      <path d="M196.39,332.17A82.52,82.52,0,0,1,216.12,323h.05l.05,0h0a82.52,82.52,0,0,1,21.51-3.26L243,363a32.78,32.78,0,0,1-12.62,7h0l-.07,0h0a32.78,32.78,0,0,1-14.4,1.12Z" style="fill: #40352e"/>
      <path d="M196.39,332.17A82.52,82.52,0,0,1,216.12,323h.05l.05,0h0c-.06,0,14.13,47.1,14.19,47.08h0l-.07,0h0a32.78,32.78,0,0,1-14.4,1.12Z" style="opacity: 0.1"/>
      <rect x="218.81" y="363.07" width="35.88" height="55.97" transform="translate(-102.76 84.94) rotate(-16.77)" style="fill: #e4f2b1"/>
      <polygon points="227.64 423.03 262 412.68 255.67 391.66 218.19 391.66 227.64 423.03" style="fill: #8eab28"/>
      <circle cx="269.55" cy="500.11" r="88.25" transform="translate(-132.83 99.04) rotate(-16.77)" style="fill: #8eab28"/>
      <path d="M242.5,365.31l6.63,22,7.93,26.3a5,5,0,0,0,4.78,3.56l.44,0c2.42-.21,4.87-.32,7.29-.32A83.92,83.92,0,0,1,318.77,433a82.51,82.51,0,0,1,30.49,43.13,83.24,83.24,0,1,1-119.39-49.18,5,5,0,0,0,2.41-5.84l-7.92-26.28-6.63-22,24.78-7.47m3.34-6.23L211.5,369.44l8.07,26.8,7.92,26.28a88.24,88.24,0,1,0,42.09-10.67c-2.56,0-5.15.11-7.73.34l-7.93-26.3-8.07-26.8Z" style="fill: #e4f2b1"/>
      <path d="M230.42,370h0l-.07,0h0a32.78,32.78,0,0,1-14.4,1.12l-1.34-2.68L242.67,360l.36,3A32.78,32.78,0,0,1,230.42,370Z" style="fill: #816653;opacity: 0.30000000000000004"/>
      <path d="M200.35,357.31l48.09-14.49a7.41,7.41,0,0,1,4.28,14.2l-48.09,14.49a7.41,7.41,0,1,1-4.28-14.2Z" style="fill: #e4f2b1"/>
      <path d="M200.35,357.31l7-2.1a7.41,7.41,0,1,0,4.28,14.2l-7,2.1a7.41,7.41,0,1,1-4.28-14.2Z" style="fill: #668009;opacity: 0.5"/>
      <path d="M244,351.89a7.41,7.41,0,0,0-9.24-5l11-3.31a7.41,7.41,0,0,1,4.28,14.2l-11,3.31A7.41,7.41,0,0,0,244,351.89Z" style="fill: #fff;opacity: 0.75"/>
      <path d="M207.2,437.63a88.27,88.27,0,0,0,148.87,79.92A88.26,88.26,0,1,1,207.2,437.63Z" style="fill: #668009;opacity: 0.5"/>
      <circle cx="288.14" cy="441.4" r="24" transform="translate(-158.26 161.07) rotate(-24.74)" style="fill: #fff;opacity: 0.75"/>
      <path d="M244.59,361.94l16.66,55.29s-9.59,6.3-18.09,8.87c0,0,13-8,11.56-13l-15-49.71Z" style="fill: #fff;opacity: 0.75"/>
      <g>
        <path d="M292.31,523.94a6.14,6.14,0,0,1,.61-1.56l-47.5-11.21a6.14,6.14,0,1,1-4.72-5.72,6.16,6.16,0,1,1,6.78-3L295,513.65a6.14,6.14,0,1,1,4.72,5.72,6.14,6.14,0,1,1-7.39,4.57Z" style="fill: #f5f5f5"/>
        <path d="M263.74,532.55a6.14,6.14,0,0,0-1.37-1L295.76,496a6.14,6.14,0,1,0,.78-7.38,6.16,6.16,0,1,0-7.31,1.24l-33.4,35.59a6.14,6.14,0,1,0-.78,7.38,6.14,6.14,0,1,0,8.69-.28Z" style="fill: #f5f5f5"/>
        <path d="M249.42,488.32a6.14,6.14,0,1,0,11.42,4.17c0,.05,0,.11,0,.16a6.14,6.14,0,1,0,11.77-3.55l-.06-.16a6.14,6.14,0,1,0,7.21-9.79,20.61,20.61,0,1,0-30.39,9.16Zm15-14.53a5.71,5.71,0,1,1,7.12,3.82A5.71,5.71,0,0,1,264.38,473.79Zm-16,4.82a5.71,5.71,0,1,1,7.12,3.82A5.71,5.71,0,0,1,248.38,478.61Z" style="fill: #f5f5f5"/>
      </g>
    </g>
  </g>
  <g id="Calque_5" data-name="Calque 5">
    <path d="M818.56,338S630.22,216.64,588.48,227.32,282.15,620.49,282.15,620.49l372.34,68a18.72,18.72,0,0,1-1-2.79c-11.27-41.39,8.73-320.49,8.73-320.49l37.86-5.82-4.85-15.53Z" style="fill: #12151a"/>
    <path d="M588.48,227.32C546.74,238,282.15,620.49,282.15,620.49l116.91,21.34C454,516.42,578.68,233.59,588.48,227.32Z" style="opacity: 0.5"/>
    <path d="M621.5,682.43l33,6a18.71,18.71,0,0,1-1-2.79c-11.27-41.39,8.73-320.49,8.73-320.49S618.37,560,621.5,682.43Z" style="fill: #f5f5f5;opacity: 0.15"/>
    <path d="M614.56,273.66c8.86,14,198.19,64.61,198.19,64.61h0l5.81-.27S630.22,216.64,588.48,227.32C614.27,222,605.69,259.66,614.56,273.66Z" style="fill: #f5f5f5;opacity: 0.15"/>
    <path d="M651.69,335.41s38.6,25.64,48.43,23.94l-4.85-15.53C687.94,343.91,651.69,335.41,651.69,335.41Z" style="fill: #f5f5f5;opacity: 0.15"/>
    <path d="M613.64,229.91c.57.18,1.18.36,1.84.54Z" style="fill: #fff;opacity: 0.5"/>
    <path d="M289.43,596.1s37.26-44.11,43.93-59.44,24.67-58,30-59.33S464,481.32,538,504s127.13,56,124.23,64.67-8.23,96.67-7.57,114S308.17,645.54,289.43,596.1Z" style="fill: #00354e"/>
    <path d="M439.19,569.16c5-3-83-88-75.83-91.83-5.33,1.33-23.33,44-30,59.33s-43.93,59.44-43.93,59.44c1.31,3.46,4.23,6.94,8.52,10.42,16.47-14.4,41.07-35.36,49.75-39.86C361.19,559.66,434.19,572.16,439.19,569.16Z" style="opacity: 0.15"/>
    <path d="M538,504c-74-22.67-169.33-28-174.67-26.67,0,0,128.67,20,177.33,39.33S647.36,564,648,570.66c.55,5.52-14,70.26-16,115.16,14.33.51,22.74-.45,22.63-3.16-.67-17.33,4.67-105.33,7.57-114S612,526.66,538,504Z" style="fill: #f5f5f5;opacity: 0.15"/>
    <g id="Vie">
      <path d="M694.89,423.9A82.52,82.52,0,0,1,716,429.35h0l.05,0,.05,0h0a82.52,82.52,0,0,1,18.69,11.15l-23.42,36.82a32.78,32.78,0,0,1-14.21-2.59h0l0,0-.07,0h0a32.78,32.78,0,0,1-11.83-8.28Z" style="fill: #ab6e5c"/>
      <path d="M694.89,423.9A82.52,82.52,0,0,1,716,429.35h0l.05,0,.05,0h0c-.05,0-19,45.35-18.95,45.37h0l0,0-.07,0h0a32.78,32.78,0,0,1-11.83-8.28Z" style="opacity: 0.1"/>
      <rect x="662.07" y="465.29" width="35.88" height="100.87" transform="translate(1108.76 1253.67) rotate(-157.33)" style="fill: #f2dadc"/>
      <polygon points="644.02 555.35 677.13 569.18 699.45 515.73 660.72 515.37 644.02 555.35" style="fill: #e63140"/>
      <path d="M664.32,553.15c41.55,17.35,47.44,115.41,42.46,127.33s-29.55,37.59-99.19,8.51-68.66-64.6-63.68-76.52S622.76,535.8,664.32,553.15Z" style="fill: #e63140"/>
      <polygon points="612.12 600.01 630.5 607.68 638.17 589.3 657.09 597.21 649.42 615.58 667.79 623.26 659.89 642.18 641.52 634.5 633.84 652.88 614.92 644.98 622.59 626.6 604.22 618.93 612.12 600.01" style="fill: #f5f5f5"/>
      <path d="M685.58,468.82l23.88,10-34.85,83.44a5,5,0,0,0,.89,5.27c11.26,12.54,20,35.08,24.69,63.46,4,24.65,3.43,44.08,2,47.59-.83,2-3.52,7.13-10.47,11.64-7.32,4.75-16.79,7.16-28.16,7.16-15.21,0-33.39-4.37-54-13-28.68-12-48.52-26.68-57.39-42.52-8.22-14.68-4.45-25.45-3.61-27.46,1.47-3.51,14.88-17.63,35.29-32.1,23.5-16.66,45.72-26.25,62.55-27a5,5,0,0,0,4.39-3.07l34.83-83.39m-2.69-6.54-36.75,88c-41.91,1.91-97.91,51.85-102.23,62.18-5,11.92-6,47.44,63.68,76.52,23.43,9.78,41.75,13.37,55.95,13.37,28,0,39.94-14,43.24-21.88,4.31-10.32.48-85.11-27.55-116.32L716,476.1l-33.11-13.83Z" style="fill: #f2dadc"/>
      <path d="M697.11,474.76h0l0,0-.07,0h0a32.78,32.78,0,0,1-11.83-8.28l.67-2.93,27.09,11.32-1.61,2.53A32.78,32.78,0,0,1,697.11,474.76Z" style="fill: #816653;opacity: 0.30000000000000004"/>
      <path d="M682,445.83l46.35,19.36a7.41,7.41,0,0,1-5.71,13.68l-46.35-19.36A7.41,7.41,0,1,1,682,445.83Z" style="fill: #f2dadc"/>
      <path d="M682,445.83l6.73,2.81A7.41,7.41,0,1,0,683,462.32l-6.73-2.81A7.41,7.41,0,1,1,682,445.83Z" style="fill: #7a1a1f;opacity: 0.5"/>
      <path d="M643.34,550.48l-.08,0c-7.59,1.16-51.41,45.47-59.15,74.39s86.84,85.2,114.66,66.23c-12.37,10.8-39.23,19.57-91.17-2.12-69.64-29.08-68.66-64.6-63.68-76.52C548.13,602.37,601.77,554.38,643.34,550.48Z" style="fill: #7a1a1f;opacity: 0.5"/>
      <path d="M719.15,469.39a7.41,7.41,0,0,0-4-9.7l10.59,4.42A7.41,7.41,0,0,1,720,477.8l-10.59-4.42A7.41,7.41,0,0,0,719.15,469.39Z" style="fill: #fff;opacity: 0.75"/>
      <path d="M713.21,477.51l-37.47,89.72s-11.41-1.22-19.6-4.64c0,0,15.18,2.08,17.18-2.69l35.22-84.34Z" style="fill: #fff;opacity: 0.75"/>
      <path d="M679.7,572.42c-6.91-2-26.77,16.91-33.24,39.13s3.61,47.38,30.27,57.07,26.32-25,25-38.24S689.72,575.25,679.7,572.42Z" style="fill: #fff;opacity: 0.75"/>
    </g>
    <path d="M485.13,637c-118.74-27.62-358.44-115.66-359.44-110S201,626.47,471.37,689s359.33,13.52,359.33,5.54S639.57,673,485.13,637Z" style="fill: #12151a"/>
    <path d="M651.69,713.32c-20.9-6.13-115-25.33-187-45.33s-215.33-64-255.33-82.67-83.67-58.25-83.67-58.25c-1,5.7,75.35,99.4,345.67,161.89,141.54,32.72,233.37,34.88,288.74,28.37C754.85,718,672.59,719.46,651.69,713.32Z" style="opacity: 0.5"/>
    <path d="M764,695.32c28.26,3.21,45.25,11.71,33.64,15.16,23.15-6.12,33-13.32,33-16,0-8-191.13-21.54-345.56-57.47-118.74-27.62-358.44-115.66-359.44-110,0,0,282.34,100.23,301.67,106.25C538.69,668,734.69,692,764,695.32Z" style="fill: #f5f5f5;opacity: 0.15"/>
  </g>
</svg>
